HIERARCHY
ROOT Hips
{
	OFFSET 0.000000 0.000000 0.000000 
	CHANNELS 6 Xposition Yposition Zposition Yrotation Zrotation Xrotation 
	JOINT Lumbar
	{
		OFFSET 0.000000 0.000000 0.000000 
		CHANNELS 3 Zrotation Xrotation Yrotation
		JOINT Neck
		{
			OFFSET 0.000000 0.445665 0.000000 
			CHANNELS 3 Zrotation Xrotation Yrotation
			End Site
			{
				OFFSET 0.000000 0.227535 0.000000 
			}
		}
		JOINT RightShoulder
		{
			OFFSET 0.019635 0.377685 0.194865 
			CHANNELS 3 Zrotation Xrotation Yrotation
			JOINT RightElbow
			{
				OFFSET 0.000000 -0.243375 0.000000 
				CHANNELS 2 Zrotation Yrotation
				JOINT RightWrist
				{
					OFFSET 0.000000 -0.264825 0.000000 
					CHANNELS 2 Zrotation Xrotation
					End Site
					{
						OFFSET 0.006600 -0.176220 0.000990 
					}
				}
			}
		}
		JOINT LeftShoulder
		{
			OFFSET 0.019635 0.377685 -0.194865 
			CHANNELS 3 Zrotation Xrotation Yrotation
			JOINT LeftElbow
			{
				OFFSET 0.000000 -0.243375 0.000000 
				CHANNELS 2 Zrotation Yrotation
				JOINT LeftWrist
				{
					OFFSET 0.000000 -0.264825 0.000000 
					CHANNELS 2 Zrotation Xrotation
					End Site
					{
						OFFSET 0.006600 -0.176220 -0.000990 
					}
				}
			}
		}
	}
	JOINT RightHip
	{
		OFFSET 0.052140 -0.069960 0.075570 
		CHANNELS 3 Zrotation Xrotation Yrotation
		JOINT RightKnee
		{
			OFFSET 0.000000 -0.402270 0.000000 
			CHANNELS 1 Zrotation
			JOINT RightAnkle
			{
				OFFSET 0.000000 -0.404085 0.000000 
				CHANNELS 3 Zrotation Xrotation Yrotation
				End Site
				{
					OFFSET 0.204105 -0.089430 0.008415 
				}
			}
		}
	}
	JOINT LeftHip
	{
		OFFSET 0.052140 -0.069960 -0.075570 
		CHANNELS 3 Zrotation Xrotation Yrotation
		JOINT LeftKnee
		{
			OFFSET 0.000000 -0.402270 0.000000 
			CHANNELS 1 Zrotation
			JOINT LeftAnkle
			{
				OFFSET 0.000000 -0.404085 0.000000 
				CHANNELS 3 Zrotation Xrotation Yrotation
				End Site
				{
					OFFSET 0.204105 -0.089430 -0.008415 
				}
			}
		}
	}
}
MOTION
Frames: 14
Frame Time: 0.02
0.5979 0.93194 -1.01872 161.91996 0 -4.91355 -0.36861 0.69553 -4.33347 -44.89706 0.65116 6.45674 49.74913 -30.23972 35.68511 87.01509 128.34516 -22.98154 -12.14992 49.9194 17.25465 -44.05373 87.59429 -121.83758 -32.71534 8.99254 7.33128 -0.87287 0.62163 -27.12139 -9.94968 -1.63758 -14.99679 -1.43843 2.38033 11.57634 -11.34581 -0.77352 3.66639 11.77438
0.5959 0.93221 -1.0168 161.95102 0 -5.102 -0.27814 0.79377 -4.41961 -44.67022 0.87363 6.49808 48.97867 -30.13966 35.33783 87.57674 127.39236 -23.6334 -11.96965 49.45954 16.78421 -43.07351 88.25062 -120.93739 -33.63497 8.70047 7.9948 -0.3968 1.82759 -28.03599 -9.73454 -1.66668 -15.0633 -1.44493 2.45064 11.51999 -11.47455 -0.65802 3.69022 11.82678
0.5937 0.9325 -1.01535 161.985 0 -5.30607 -0.16733 0.94016 -4.57031 -44.55982 1.12816 6.60673 48.1561 -30.13544 34.98636 88.24295 123.65812 -22.49121 -11.20905 48.93697 16.19393 -41.97553 88.3076 -118.81567 -33.90915 8.29544 8.5913 0.20026 3.35624 -28.74614 -9.53269 -1.69768 -15.07466 -1.43705 2.55982 11.45158 -11.66588 -0.52298 3.71782 11.90278
0.5916 0.93277 -1.01371 162.02702 0 -5.49846 -0.07061 1.06451 -4.69458 -44.38787 1.36525 6.67283 47.35974 -30.06646 34.6357 88.8385 121.34064 -22.2156 -10.7519 48.45424 15.66586 -40.97284 88.62592 -117.34724 -34.52647 7.9528 9.2092 0.72863 4.70926 -29.51717 -9.33169 -1.72791 -15.10151 -1.43432 2.64844 11.37981 -11.83053 -0.39644 3.74433 11.96807
0.58947 0.9331 -1.01197 162.02347 0 -5.71167 0.04726 1.19307 -4.80443 -44.25034 1.60913 6.78247 46.54067 -30.07252 34.26254 89.51409 118.49106 -21.80931 -10.16054 47.90975 15.12185 -39.77886 88.98619 -115.4629 -34.96032 7.55452 9.8686 1.31836 6.18812 -30.42826 -9.09908 -1.75847 -15.16616 -1.43764 2.75129 11.34949 -11.99034 -0.27005 3.76859 12.03482
0.58736 0.9333 -1.01056 162.11738 0 -5.88427 0.12607 1.32309 -4.95979 -44.07167 1.84813 6.82048 45.76517 -29.95163 33.94347 90.05544 116.03073 -21.22306 -9.69353 47.4866 14.57668 -38.95913 89.12169 -114.15089 -35.60669 7.2484 10.42437 1.80685 7.47841 -30.99566 -8.93648 -1.78834 -15.14121 -1.4256 2.83275 11.22924 -12.17282 -0.13979 3.79808 12.10296
0.58534 0.93315 -1.00989 162.48578 0 -5.94543 0.08676 1.44347 -5.23352 -43.72416 2.0707 6.6394 45.07311 -29.44519 33.80169 90.18794 115.51774 -20.48475 -9.76989 47.38612 14.05068 -39.22734 88.74029 -114.77374 -37.07312 7.22874 10.71025 1.99618 8.19098 -30.68256 -8.96335 -1.81798 -14.8664 -1.36583 2.84823 10.8528 -12.41811 0.00268 3.84376 12.17611
0.58335 0.93287 -1.00955 162.9522 0 -5.96413 0.0082 1.56354 -5.54976 -43.33571 2.28711 6.38574 44.43697 -28.81251 33.71346 90.18512 115.44649 -19.62562 -9.97829 47.41678 13.52627 -39.87474 88.15905 -116.00582 -38.75946 7.30631 10.8935 2.07722 8.69861 -30.02661 -9.0606 -1.84643 -14.50597 -1.29269 2.84011 10.38751 -12.68089 0.14703 3.89404 12.24823
0.58134 0.93265 -1.00908 163.3704 0 -5.99924 -0.04897 1.68434 -5.84128 -42.98407 2.50404 6.16947 43.80889 -28.24616 33.58762 90.25661 115.02918 -18.87753 -10.08194 47.40714 13.00344 -40.33309 87.70066 -116.92282 -40.29207 7.33776 11.12362 2.20091 9.28514 -29.51522 -9.12647 -1.8739 -14.19597 -1.23122 2.84078 9.96928 -12.9255 0.28629 3.94047 12.3164
0.57933 0.93242 -1.00853 163.80313 0 -6.04736 -0.12009 1.80412 -6.15739 -42.56152 2.73188 5.93693 43.03775 -27.64197 33.51813 90.28285 115.11599 -17.85554 -10.34761 47.31338 12.46785 -40.85422 87.09618 -117.95626 -42.02696 7.37295 11.35136 2.35658 9.94199 -29.04481 -9.19052 -1.90771 -13.83743 -1.14531 2.8509 9.52267 -13.21596 0.44424 3.99454 12.40492
0.57735 0.93218 -1.00822 164.23007 0 -6.05774 -0.17214 1.92565 -6.43204 -42.27305 2.93481 5.72003 42.57828 -27.0893 33.34291 90.36298 114.31122 -17.3683 -10.32359 47.42713 11.95967 -41.34048 86.74373 -118.91045 -43.40444 7.42532 11.55943 2.41832 10.40085 -28.40957 -9.27452 -1.92821 -13.55784 -1.10773 2.83537 9.11404 -13.41363 0.56333 4.03366 12.44943
0.57546 0.93197 -1.00846 164.60708 0 -5.97713 -0.15867 2.04862 -6.57757 -42.38465 3.07304 5.56516 42.96802 -26.67708 32.87483 90.68157 110.80232 -18.65963 -9.39227 48.0793 11.53642 -41.60109 87.24598 -119.47791 -43.70861 7.49917 11.74778 2.24669 10.34972 -27.41045 -9.39991 -1.91042 -13.54004 -1.20357 2.75334 8.83313 -13.35581 0.57567 4.03084 12.38135
0.57361 0.93176 -1.00894 164.97691 0 -5.85931 -0.12535 2.17364 -6.68048 -42.62819 3.18572 5.42791 43.66844 -26.32708 32.2966 91.04598 106.42547 -20.45788 -8.1818 48.93581 11.1401 -41.81993 87.99053 -119.95275 -43.65074 7.58796 11.91831 1.98389 10.10736 -26.25758 -9.5423 -1.87959 -13.60107 -1.34921 2.64646 8.59329 -13.20281 0.54863 4.01264 12.26717
0.57173 0.93155 -1.00934 165.35639 0 -5.7567 -0.10333 2.29987 -6.8053 -42.79792 3.30832 5.28167 44.22662 -25.96919 31.76058 91.35449 102.54026 -21.84571 -7.15111 49.70176 10.72489 -42.08392 88.55612 -120.49044 -43.7883 7.67189 12.09124 1.76236 9.95962 -25.17041 -9.67446 -1.85592 -13.61084 -1.47426 2.55163 8.33403 -13.08967 0.5388 4.00119 12.16842
